<svg xmlns="http://www.w3.org/2000/svg" width="32" height="32" viewBox="0 0 32 32" fill="none">
<path d="M28.026 12.5C27.7957 12.978 27.6716 13.5002 27.6623 14.0308C27.653 14.5613 27.7586 15.0875 27.972 15.5733L18.7547 26.7093C18.5466 26.9607 18.2684 27.1442 17.9554 27.2366C17.6425 27.329 17.3092 27.326 16.998 27.228L5.68533 23.6667C4.98115 23.4775 4.33377 23.1193 3.79933 22.6233C3.44745 22.1777 3.2064 21.6549 3.09599 21.098C2.97444 20.3719 2.97737 19.6304 3.10466 18.9053C3.52866 16.8493 5.04466 17.454 5.04466 17.454" stroke="#4ECB71" stroke-width="2.91667" stroke-linecap="round" stroke-linejoin="round"/>
<path d="M5.04468 17.4547L16.5813 21.356C16.89 21.4603 17.2228 21.4697 17.5368 21.3831C17.8509 21.2965 18.1318 21.1177 18.3433 20.87L28.8473 8.574C28.9216 8.48707 28.9721 8.3824 28.994 8.27017C29.0158 8.15794 29.0083 8.04196 28.972 7.93352C28.9358 7.82507 28.8721 7.72785 28.7872 7.6513C28.7023 7.57475 28.599 7.52148 28.4873 7.49666L16.0167 4.74133C15.6913 4.6694 15.3525 4.68736 15.0366 4.79329C14.7207 4.89923 14.4396 5.08913 14.2233 5.34266L3.67401 17.7207" stroke="#4ECB71" stroke-width="2.91667" stroke-linecap="round" stroke-linejoin="round"/>
<path d="M13.1653 10.0747L21.582 12.476L23.6953 10.094L15.0213 8.01933L13.1653 10.0747Z" stroke="#4ECB71" stroke-width="2.91667" stroke-linejoin="round"/>
</svg>